<svg xmlns="http://www.w3.org/2000/svg" xmlns:xlink="http://www.w3.org/1999/xlink" version="1.1" x="0px" y="0px" viewBox="0 0 100 125" enable-background="new 0 0 100 100" xml:space="preserve"><g><path d="M58.927,85.767c0.199-0.742,0.098-1.518-0.286-2.182c-0.792-1.37-2.554-1.843-3.929-1.054l-4.713,2.723l-4.715-2.723   c-1.373-0.791-3.134-0.318-3.927,1.054c-0.792,1.37-0.319,3.131,1.054,3.927l1.841,1.062l-1.835,1.06   c-0.002,0.001-0.004,0.001-0.006,0.002c-0.001,0.001-0.003,0.003-0.006,0.005l-0.046,0.026c-0.016,0.01-0.026,0.024-0.04,0.036   c-1.295,0.818-1.732,2.521-0.961,3.86C41.871,94.45,42.825,95,43.851,95c0.463,0,0.915-0.126,1.327-0.34   c0.018-0.008,0.036-0.006,0.054-0.016l0.05-0.027l0.007-0.005l4.713-2.72l4.701,2.714c0.005,0.002,0.008,0.006,0.013,0.009   c0.003,0.002,0.008,0.003,0.011,0.004l0.041,0.024c0.014,0.008,0.029,0.005,0.045,0.012C55.225,94.873,55.682,95,56.148,95   c1.026,0,1.98-0.551,2.492-1.438c0.384-0.665,0.485-1.44,0.286-2.182c-0.189-0.705-0.633-1.292-1.245-1.678   c-0.015-0.012-0.025-0.028-0.042-0.038l-1.89-1.091l1.837-1.061C58.251,87.129,58.728,86.509,58.927,85.767z M53.768,88.573   l-3.767,2.176L49.01,91.32l-2.354,1.359c0.131-0.659,0.045-1.364-0.316-1.99c-0.352-0.607-0.913-1.053-1.56-1.275l0.463-0.269   l0.99-0.572l3.767-2.175l0.99-0.572l4.218-2.437c0.898-0.516,2.058-0.209,2.576,0.69c0.252,0.436,0.317,0.943,0.188,1.431   c-0.131,0.486-0.442,0.894-0.88,1.145l-2.331,1.347L53.768,88.573z M42.907,86.654c-0.901-0.521-1.211-1.676-0.691-2.574   c0.52-0.9,1.674-1.21,2.573-0.69l4.22,2.437l-3.768,2.176L42.907,86.654z M42.216,93.069c-0.508-0.882-0.217-2.006,0.642-2.54   c0.014-0.009,0.024-0.02,0.038-0.027l0.022-0.014c0.283-0.161,0.603-0.248,0.927-0.248c0.674,0,1.3,0.361,1.637,0.945   c0.517,0.896,0.209,2.044-0.684,2.566l-0.016,0.009c-0.017,0.009-0.033,0.014-0.049,0.021   C43.865,94.242,42.705,93.915,42.216,93.069z M57.783,93.067c-0.494,0.856-1.683,1.183-2.551,0.701l-0.045-0.026   c-0.881-0.527-1.184-1.668-0.672-2.559c0.338-0.582,0.965-0.943,1.637-0.943c0.326,0,0.649,0.087,0.936,0.25l0.013,0.008   c0.431,0.252,0.74,0.655,0.87,1.139C58.101,92.123,58.035,92.631,57.783,93.067z M55.22,89.412   c-0.646,0.223-1.208,0.669-1.561,1.276c-0.36,0.626-0.446,1.331-0.314,1.99l-2.354-1.357l3.769-2.176L55.22,89.412z"/><path d="M83.965,34.774h-3.348c0.085-0.276,0.183-0.546,0.298-0.811c0.071-0.164,0.049-0.353-0.059-0.495   c-0.106-0.144-0.284-0.217-0.458-0.194c-6.057,0.782-17.504,1.095-23.107-0.289c0.169-0.307,0.399-0.562,0.694-0.759   c0.125-0.084,0.205-0.22,0.218-0.37c0.012-0.15-0.044-0.298-0.154-0.402c-0.504-0.476-0.739-1.118-0.699-1.913   c0.038-0.79,0.336-1.407,0.885-1.833c0.13-0.101,0.201-0.26,0.19-0.423c-0.01-0.165-0.102-0.312-0.243-0.396   c-0.599-0.351-0.974-0.925-1.114-1.705c-0.141-0.784,0.01-1.453,0.448-1.987c0.091-0.111,0.129-0.256,0.104-0.397   c-0.023-0.142-0.109-0.266-0.231-0.34c-0.659-0.4-1.102-0.801-1.521-1.361c1.994-0.975,3.016-2.35,3.516-3.338   c0.094-0.187,0.061-0.411-0.082-0.562c-0.145-0.153-0.368-0.197-0.558-0.115c-1.795,0.778-3.849,0.711-4.937,0.208   c-0.062-2.052-1.404-3.442-2.546-4.617c-0.684-0.705-1.337-1.378-1.687-2.115c2.163-0.555,2.55-1.775,2.614-2.305   c0.147-1.229-0.82-2.49-2.466-3.213c-0.223-0.098-0.488-0.017-0.619,0.191c-0.13,0.209-0.088,0.48,0.1,0.64   c0.612,0.52,0.915,0.998,0.812,1.28c-0.14,0.382-1.075,0.766-2.847,0.766c-0.171,0-0.33,0.089-0.421,0.233   c-1.402,2.264-0.973,4.588-0.628,6.456c0.059,0.312,0.114,0.618,0.162,0.913c0.111,0.715,0.062,1.288-0.074,1.763   c-1.084,0.513-3.15,0.583-4.954-0.2c-0.189-0.082-0.414-0.038-0.558,0.115c-0.143,0.151-0.176,0.377-0.081,0.562   c0.5,0.988,1.522,2.364,3.518,3.338c-0.418,0.558-0.86,0.96-1.521,1.361c-0.123,0.074-0.208,0.198-0.231,0.34   c-0.024,0.142,0.014,0.286,0.104,0.397c0.439,0.535,0.589,1.204,0.446,1.987c-0.141,0.781-0.515,1.355-1.112,1.705   c-0.142,0.083-0.233,0.23-0.243,0.396c-0.011,0.163,0.061,0.322,0.19,0.423c0.549,0.426,0.847,1.043,0.886,1.835   c0.04,0.793-0.196,1.436-0.7,1.911c-0.11,0.104-0.166,0.252-0.154,0.402c0.013,0.15,0.093,0.286,0.218,0.37   c0.295,0.197,0.525,0.452,0.694,0.759c-5.604,1.384-17.053,1.072-23.107,0.289c-0.173-0.023-0.352,0.051-0.458,0.194   c-0.107,0.143-0.13,0.331-0.059,0.495c0.115,0.265,0.213,0.534,0.297,0.811h-3.347c-0.273,0-0.495,0.221-0.495,0.494   c0,1.61,1.098,2.692,2.73,2.692h1.55c0.025,1.183-0.043,2.464-0.124,3.885c-0.192,3.375-0.41,7.202,0.559,11.852   c0.037,0.177,0.167,0.319,0.339,0.372c0.048,0.015,0.097,0.021,0.146,0.021c0.127,0,0.251-0.049,0.346-0.14   c1.769-1.722,3.229-2.34,4.517-2.885c1.417-0.6,2.712-1.152,4.007-2.938c0.012-0.002,0.022-0.001,0.034-0.004   c1.696-0.34,5.257-2.035,7.454-5.164c1.301-0.272,3.045-0.871,4.562-1.818c2.3,1.145,3.831,4.49,3.831,8.45   c0,10.956-1.952,18.829-11.929,26.645c-0.105,0.081-0.172,0.203-0.188,0.335c-0.014,0.133,0.025,0.265,0.109,0.368   c1.393,1.698,2.638,1.596,3.732,1.505c0.606-0.05,1.181-0.098,1.82,0.127c0.793,0.277,1.375,0.749,1.937,1.206   c0.658,0.535,1.334,1.084,2.215,1.084c0.202,0,0.42-0.043,0.646-0.107c1.115,0.842,2.396,0.982,3.103,0.982   c0.309,0,0.61-0.022,0.897-0.069c0.204-0.032,0.367-0.19,0.407-0.394s-0.052-0.41-0.229-0.518   c-0.842-0.514-1.379-1.373-1.436-2.302c-0.044-0.694,0.178-1.374,0.634-1.981c0.066,0.216,0.163,0.377,0.259,0.494   c0.187,0.229,0.539,0.5,1.154,0.5c0.524,0,1.015-0.281,1.312-0.753c0.188-0.296,0.343-0.731,0.304-1.346   c0.26,0.496,0.251,1.02,0.242,1.56c-0.012,0.702-0.023,1.499,0.744,1.976c0.671,0.413,1.561,0.261,2.037-0.353   c0.104-0.135,0.188-0.286,0.253-0.452c0.078,0.257,0.104,0.509,0.072,0.749c-0.089,0.65-0.582,1.231-1.468,1.729   c-0.182,0.101-0.279,0.303-0.247,0.508c0.031,0.204,0.188,0.367,0.39,0.409c0.643,0.131,1.254,0.197,1.814,0.197h0.001   c1.757,0,2.837-0.636,3.497-1.355c0.967-0.112,1.573-0.552,2.144-0.993c0.444-0.343,0.863-0.666,1.483-0.843   c0.639-0.179,1.162-0.122,1.716-0.064c1.071,0.12,2.18,0.236,3.599-1.495c0.084-0.104,0.123-0.235,0.109-0.368   c-0.016-0.132-0.082-0.254-0.188-0.335c-9.979-7.815-11.931-15.688-11.931-26.645c0-3.96,1.532-7.306,3.833-8.45   c1.519,0.947,3.263,1.546,4.562,1.818c2.197,3.128,5.757,4.824,7.451,5.164c0.013,0.003,0.025,0.002,0.038,0.004   c1.295,1.786,2.589,2.339,4.007,2.938c1.287,0.545,2.747,1.162,4.516,2.885c0.095,0.091,0.219,0.14,0.346,0.14   c0.049,0,0.098-0.007,0.146-0.021c0.172-0.053,0.302-0.195,0.339-0.372c0.969-4.648,0.75-8.475,0.558-11.851   c-0.081-1.421-0.149-2.703-0.123-3.886h1.551c1.632,0,2.729-1.082,2.729-2.692C84.46,34.995,84.238,34.774,83.965,34.774z    M56.438,23.022c-0.381,0.675-0.5,1.473-0.345,2.338c0.148,0.827,0.514,1.51,1.068,2.006c-0.486,0.563-0.762,1.288-0.802,2.126   c-0.045,0.871,0.175,1.644,0.636,2.264c-0.386,0.371-0.66,0.839-0.832,1.377c-0.009,0.021-0.023,0.036-0.029,0.058   c-0.003,0.01,0,0.02-0.003,0.029c-0.062,0.211-0.108,0.431-0.136,0.662c-0.096,0.845,0.06,1.609,0.452,2.244   c-0.621,0.42-1.079,1.052-1.34,1.859c-0.155,0.489-0.216,0.967-0.181,1.424c-3.34-2.479-2.664-5.314-1.83-8.819   c0.414-1.739,0.842-3.539,0.842-5.495c0-1.279-0.164-2.326-0.463-3.178c0.526-0.117,1.012-0.258,1.457-0.421   C55.36,22.107,55.812,22.581,56.438,23.022z M50,36.117c-0.37-1.02-0.909-2.109-1.511-2.606c-0.124-1.027-0.37-2.08-0.625-3.149   c-0.141-0.59-0.276-1.19-0.401-1.797c0.225,0.252,0.466,0.48,0.73,0.68c0.538,0.403,1.147,0.608,1.808,0.608   c0.659,0,1.268-0.205,1.807-0.608c0.263-0.197,0.504-0.426,0.728-0.675c-0.126,0.604-0.262,1.202-0.401,1.791   c-0.254,1.07-0.5,2.123-0.624,3.151C50.908,34.009,50.369,35.099,50,36.117z M45.502,18.541c-0.103,0.114-0.206,0.223-0.309,0.318   c-0.178,0.165-0.197,0.429-0.07,0.625c0.016,0.024,0.024,0.053,0.046,0.075c0.187,0.2,0.501,0.211,0.699,0.024   c0.107-0.101,0.219-0.214,0.33-0.335c0.331-0.359,0.652-0.824,0.871-1.422c0.012-0.029,0.024-0.058,0.031-0.088   c0.012-0.034,0.024-0.066,0.035-0.102c0.026-0.082,0.048-0.168,0.069-0.256c0.149,0.075,0.312,0.135,0.476,0.197   c0.051,0.021,0.102,0.04,0.154,0.059c0.671,0.235,1.421,0.379,2.188,0.379c0.769,0,1.519-0.144,2.191-0.379   c0.04-0.014,0.077-0.029,0.116-0.044c0.169-0.063,0.339-0.123,0.495-0.199c0,0.079-0.008,0.161-0.011,0.243   c-0.007,0.121-0.019,0.246-0.036,0.374c-0.058,0.408-0.17,0.846-0.358,1.322c-0.021,0.054-0.027,0.109-0.029,0.164   c-0.008,0.203,0.106,0.399,0.307,0.479c0.061,0.023,0.122,0.034,0.183,0.034c0.197,0,0.384-0.117,0.461-0.312   c0.08-0.202,0.146-0.397,0.205-0.59c0.082-0.271,0.141-0.529,0.184-0.781c0.188,0.067,0.391,0.125,0.607,0.174   c0.967,0.216,2.172,0.238,3.415-0.054c-0.625,0.748-1.45,1.349-2.435,1.808c-0.295,0.139-0.604,0.263-0.93,0.374   c-0.423,0.143-0.874,0.261-1.345,0.357c-0.348,0.071-0.707,0.129-1.079,0.174c-0.625,0.077-1.274,0.126-1.966,0.126   c-0.69,0-1.34-0.049-1.964-0.126c-0.373-0.045-0.732-0.103-1.079-0.174c-0.471-0.098-0.923-0.215-1.346-0.358   c-0.324-0.11-0.634-0.234-0.928-0.372c-0.985-0.46-1.81-1.06-2.436-1.808C43.42,18.726,44.564,18.726,45.502,18.541z M50.944,7.494   c0.023-0.063,0.044-0.131,0.058-0.203c0.163,0.281,0.237,0.569,0.204,0.844c-0.088,0.737-0.977,1.325-2.377,1.571   c-0.136,0.024-0.257,0.104-0.331,0.221c-0.075,0.117-0.097,0.26-0.061,0.394c0.314,1.188,1.229,2.131,2.114,3.043   c0.9,0.928,1.768,1.828,2.114,2.982c-0.072,0.044-0.136,0.088-0.218,0.131c-0.389,0.199-0.891,0.377-1.484,0.474   c-0.293,0.048-0.607,0.077-0.94,0.077c-0.341,0-0.661-0.032-0.962-0.082c-0.596-0.1-1.095-0.279-1.479-0.48   c-0.096-0.051-0.174-0.103-0.255-0.154c0.002-0.294-0.014-0.604-0.067-0.943c-0.048-0.305-0.105-0.618-0.165-0.94   c-0.334-1.801-0.677-3.661,0.359-5.521C49.416,8.863,50.62,8.377,50.944,7.494z M49.999,22.277c0.923,0,1.75-0.069,2.511-0.182   c0.271,0.693,0.439,1.657,0.439,2.999c0,0.229-0.023,0.451-0.035,0.677c-0.316,1.155-0.902,2.082-1.699,2.68   c-0.742,0.556-1.691,0.552-2.429,0c-0.8-0.6-1.387-1.529-1.702-2.688c-0.012-0.224-0.035-0.443-0.035-0.669   c0-1.342,0.169-2.306,0.441-2.999C48.249,22.208,49.076,22.277,49.999,22.277z M43.904,25.361c0.158-0.865,0.039-1.663-0.343-2.339   c0.624-0.439,1.075-0.913,1.504-1.527c0.444,0.164,0.932,0.305,1.458,0.422c-0.301,0.852-0.465,1.898-0.465,3.178   c0,1.957,0.429,3.756,0.843,5.496c0.835,3.505,1.511,6.341-1.829,8.818c0.035-0.457-0.025-0.936-0.182-1.426   c-0.26-0.806-0.718-1.438-1.339-1.857c0.393-0.636,0.549-1.4,0.451-2.246c-0.027-0.23-0.074-0.449-0.135-0.66   c-0.003-0.009,0-0.02-0.003-0.029c-0.006-0.022-0.021-0.039-0.031-0.059c-0.17-0.538-0.446-1.006-0.83-1.376   c0.461-0.62,0.681-1.393,0.637-2.263c-0.041-0.839-0.316-1.563-0.803-2.127C43.391,26.87,43.756,26.188,43.904,25.361z    M18.271,36.972c-0.894,0-1.504-0.452-1.686-1.208h3.033c0.072,0.389,0.119,0.794,0.152,1.208H18.271z M54.078,80.701   L54.078,80.701c-0.143,0-0.287-0.006-0.436-0.016c0.638-0.611,0.862-1.233,0.926-1.705c0.13-0.958-0.281-1.961-1.156-2.827   c-0.158-0.157-0.402-0.188-0.595-0.077c-0.193,0.11-0.288,0.337-0.233,0.552c0.145,0.566,0.107,1.045-0.103,1.315   c-0.177,0.227-0.484,0.272-0.736,0.118c-0.264-0.164-0.284-0.438-0.273-1.118c0.016-0.978,0.04-2.454-1.946-3.528   c-0.188-0.104-0.421-0.072-0.576,0.076c-0.156,0.146-0.198,0.378-0.105,0.571c0.436,0.916,0.528,1.69,0.255,2.123   c-0.136,0.215-0.334,0.291-0.475,0.291c-0.275,0-0.359-0.103-0.387-0.137c-0.134-0.163-0.159-0.507-0.07-0.945   c0.041-0.203-0.05-0.411-0.227-0.52c-0.178-0.109-0.403-0.097-0.566,0.034c-1.234,0.977-1.869,2.259-1.785,3.605   c0.049,0.812,0.368,1.583,0.891,2.211c-1.223-0.111-2.944-0.738-3.531-3.258c-0.301-1.299-0.223-2.113-0.148-2.9   c0.046-0.475,0.09-0.934,0.044-1.449c0.095,0.219,0.157,0.452,0.224,0.696c0.177,0.661,0.397,1.483,1.469,1.856   c0.214,0.074,0.452-0.006,0.576-0.196c0.962-1.469,0.578-2.611,0.24-3.618c-0.281-0.841-0.519-1.547-0.016-2.448   c0.122,0.394,0.305,0.663,0.475,0.844c0.701,0.747,1.991,0.631,2.643-0.219c0.452-0.591,0.571-1.396,0.335-2.268   c-0.514-1.885-0.229-3.233,1.026-4.483c-0.27,1.429-0.152,2.558,0.354,3.253c0.417,0.575,1.072,0.843,1.893,0.766   c0.646-0.06,1.18-0.45,1.463-1.074c0.142-0.311,0.207-0.656,0.202-1.007c0.852,1.06,0.903,2.827,0.093,5.003   c-0.759,2.034-0.853,3.634-0.27,4.625c0.328,0.559,0.858,0.907,1.534,1.011c0.792,0.12,1.423-0.113,1.856-0.645   c0.184-0.226,0.324-0.499,0.419-0.814c0.57,1.769,0.557,3.537-0.109,4.711C56.65,80.166,55.584,80.7,54.078,80.701z M65.417,76.689   c-0.892,0.925-1.507,0.856-2.393,0.762c-0.595-0.065-1.271-0.137-2.093,0.096c-0.804,0.229-1.343,0.645-1.817,1.012   c-0.269,0.208-0.513,0.393-0.778,0.536c0.803-1.948,0.43-4.744-1.024-7.184c-0.124-0.209-0.382-0.298-0.604-0.209   c-0.225,0.088-0.355,0.324-0.307,0.562c0.209,1.024,0.124,1.894-0.227,2.323c-0.214,0.262-0.527,0.354-0.942,0.292   c-0.381-0.058-0.652-0.231-0.829-0.533c-0.243-0.413-0.522-1.455,0.345-3.777c1.519-4.078,0.086-6.329-1.763-7.077   c-0.201-0.084-0.438-0.021-0.574,0.153c-0.137,0.173-0.141,0.417-0.012,0.595c0.351,0.485,0.438,1.105,0.225,1.578   c-0.078,0.171-0.266,0.462-0.654,0.497c-0.458,0.045-0.791-0.071-1-0.36c-0.466-0.643-0.399-2.085,0.178-3.862   c0.065-0.202-0.005-0.424-0.176-0.551s-0.404-0.129-0.578-0.009c-2.55,1.779-3.315,3.722-2.561,6.494   c0.154,0.565,0.096,1.065-0.165,1.406c-0.299,0.386-0.829,0.466-1.136,0.142c-0.255-0.271-0.375-0.771-0.336-1.404   c0.012-0.205-0.104-0.397-0.293-0.482c-0.189-0.082-0.41-0.041-0.555,0.105c-1.791,1.824-1.336,3.181-0.935,4.378   c0.267,0.797,0.502,1.498,0.088,2.377c-0.256-0.204-0.35-0.508-0.479-0.989c-0.198-0.742-0.472-1.76-1.894-2.419   c-0.186-0.086-0.407-0.049-0.555,0.097c-0.147,0.144-0.189,0.363-0.106,0.553c0.494,1.125,0.429,1.812,0.346,2.683   c-0.079,0.827-0.169,1.764,0.169,3.221c0.21,0.9,0.545,1.601,0.947,2.147c-0.399-0.091-0.785-0.387-1.333-0.831   c-0.6-0.486-1.278-1.039-2.235-1.373c-0.839-0.291-1.576-0.231-2.228-0.177c-0.942,0.074-1.653,0.135-2.549-0.771   c9.909-7.936,11.884-15.947,11.894-27.014h7.04C53.529,60.741,55.504,68.754,65.417,76.689z M78.944,52.631   c-1.606-1.396-2.954-1.966-4.159-2.476c-2.182-0.923-3.759-1.59-5.712-6.893c-0.094-0.257-0.379-0.39-0.636-0.293   c-0.256,0.095-0.388,0.379-0.292,0.636c0.494,1.343,0.979,2.407,1.461,3.273c-2.289-0.824-6.063-3.195-7.232-7.23   c-0.075-0.262-0.347-0.412-0.613-0.337c-0.263,0.076-0.414,0.351-0.338,0.613c0.188,0.648,0.439,1.256,0.736,1.826   c-1.507-0.44-3.32-1.244-4.603-2.435c-0.2-0.188-0.514-0.175-0.699,0.026c-0.186,0.2-0.174,0.514,0.026,0.699   c0.178,0.165,0.37,0.317,0.563,0.469c-2.198,1.383-3.689,4.489-3.9,8.173h-7.095c-0.211-3.685-1.702-6.79-3.899-8.173   c0.193-0.151,0.386-0.304,0.563-0.469c0.2-0.186,0.212-0.499,0.026-0.699c-0.187-0.201-0.5-0.212-0.699-0.026   c-1.282,1.189-3.096,1.993-4.602,2.434c0.297-0.569,0.547-1.178,0.735-1.825c0.076-0.263-0.075-0.537-0.338-0.613   c-0.265-0.074-0.538,0.075-0.613,0.337c-1.169,4.035-4.942,6.405-7.23,7.23c0.481-0.867,0.965-1.931,1.46-3.273   c0.095-0.257-0.037-0.541-0.293-0.637c-0.261-0.093-0.543,0.037-0.637,0.294c-1.951,5.303-3.528,5.97-5.71,6.893   c-1.206,0.51-2.554,1.08-4.16,2.476c-0.746-4.139-0.547-7.628-0.37-10.729c0.09-1.576,0.169-3.042,0.107-4.412   c0-0.008,0.004-0.016,0.004-0.024c0-0.014-0.007-0.026-0.008-0.039c-0.053-1.086-0.192-2.11-0.501-3.072   c5.604,0.632,16.805,1.071,22.719-0.423c0.003,0.022,0.01,0.041,0.013,0.062c0.092,0.792-0.102,1.449-0.572,1.952   c-0.11,0.119-0.156,0.283-0.123,0.441c0.034,0.158,0.143,0.29,0.292,0.354c0.64,0.27,1.088,0.79,1.332,1.545   c0.241,0.757,0.18,1.439-0.185,2.029c-0.119,0.193-0.092,0.442,0.066,0.604c0.158,0.163,0.405,0.199,0.602,0.085   c2.994-1.722,3.989-3.667,4.122-5.747c0.435,0.843,0.841,1.999,0.958,2.782c0.036,0.242,0.244,0.422,0.489,0.422   c0.246,0,0.454-0.18,0.489-0.423c0.112-0.763,0.521-1.92,0.956-2.769c0.137,2.075,1.135,4.016,4.122,5.734   c0.077,0.045,0.162,0.065,0.247,0.065c0.002,0,0.006,0,0.009,0c0.242,0.007,0.504-0.219,0.504-0.494   c0-0.137-0.056-0.261-0.145-0.351c-0.316-0.566-0.361-1.219-0.132-1.938c0.244-0.757,0.692-1.277,1.33-1.547   c0.149-0.063,0.258-0.195,0.292-0.353c0.033-0.158-0.013-0.323-0.122-0.441c-0.47-0.503-0.662-1.161-0.572-1.951   c0.003-0.022,0.011-0.042,0.014-0.064c5.915,1.493,17.114,1.055,22.719,0.423c-0.31,0.963-0.449,1.99-0.502,3.076   c-0.001,0.013-0.007,0.023-0.007,0.035c0,0.008,0.004,0.015,0.004,0.021c-0.062,1.371,0.017,2.839,0.106,4.417   C79.491,45.005,79.689,48.492,78.944,52.631z M81.73,36.972h-1.502c0.033-0.414,0.081-0.818,0.152-1.208h3.034   C83.234,36.52,82.623,36.972,81.73,36.972z"/></g><text x="0" y="115" fill="#000000" font-size="5px" font-weight="bold" font-family="'Helvetica Neue', Helvetica, Arial-Unicode, Arial, Sans-serif">Created by Daniel Hammer</text><text x="0" y="120" fill="#000000" font-size="5px" font-weight="bold" font-family="'Helvetica Neue', Helvetica, Arial-Unicode, Arial, Sans-serif">from the Noun Project</text></svg>