<?xml version="1.0" encoding="utf-8"?>
<svg xmlns="http://www.w3.org/2000/svg" viewBox="0 0 500 500" xmlns:bx="https://boxy-svg.com">
  <g style="" transform="matrix(1, 0, 0, -1, 0, 500)">
    <rect x="92.852" y="300" width="314.296" height="25.96" style="fill: rgb(0,0,0); stroke: rgb(0, 0, 0);"/>
    <path d="M 239.68 793.65 H 592.402 L 592.402 756.874 L 669.265 806.479 L 592.402 856.084 L 592.402 819.308 H 239.68 V 793.65 Z" bx:shape="arrow 239.68 756.874 429.585 99.211 25.658 76.863 0 1@f452acbc" style="fill: rgb(0,0,0); stroke: rgb(0, 0, 0);" transform="matrix(-0.003333, -0.999994, 0.999994, -0.003333, -554.9599, 707.157776)"/>
    <path d="M 108.003 496.935 H 239.238 L 239.238 460.408 L 320.238 509.676 L 239.238 558.945 L 239.238 522.418 H 108.003 V 496.935 Z" bx:shape="arrow 108.003 460.408 212.235 98.537 25.483 81 0 1@38dee8a0" style="fill: rgb(0,0,0); stroke: rgb(0, 0, 0);" transform="matrix(-0.004835, -0.999988, 0.999988, -0.004835, -403.69043, 410.227753)"/>
    <path d="M 108.003 496.935 H 239.238 L 239.238 460.408 L 320.238 509.676 L 239.238 558.945 L 239.238 522.418 H 108.003 V 496.935 Z" bx:shape="arrow 108.003 460.408 212.235 98.537 25.483 81 0 1@38dee8a0" style="fill: rgb(0,0,0); stroke: rgb(0, 0, 0); stroke-width: 1;" transform="matrix(-0.004835, -0.999988, 0.999988, -0.004835, -114.753036, 410.227753)"/>
  </g>
</svg>