<?xml version="1.0" encoding="utf-8"?>
<svg width="800px" height="800px" viewBox="0 0 16 16" fill="none" xmlns="http://www.w3.org/2000/svg">
  <path fill-rule="evenodd" clip-rule="evenodd" d="M 14.973 5.921 C 14.973 8.534 12.811 10.652 10.144 10.652 L 7.07 10.652 L 7.07 12.372 L 5.314 12.372 L 5.314 14.092 L 4.436 14.952 L 0.924 14.952 L 0.924 11.512 L 5.458 7.071 C 5.364 6.703 5.314 6.318 5.314 5.921 C 5.314 3.309 7.476 1.191 10.144 1.191 C 12.811 1.191 14.973 3.309 14.973 5.921 Z M 12.339 4.631 C 12.339 5.106 11.946 5.491 11.461 5.491 C 10.976 5.491 10.583 5.106 10.583 4.631 C 10.583 4.156 10.976 3.771 11.461 3.771 C 11.946 3.771 12.339 4.156 12.339 4.631 Z" fill="#E8BF8B" style=""/>
</svg>