<?xml version="1.0" encoding="utf-8"?>
<svg version="1.1" id="Layer_1" xmlns="http://www.w3.org/2000/svg" viewBox="0 0 512 512">
  <polygon style="fill: rgb(91, 197, 239);" points="388.039 64.919 48.483 64.919 48.483 471.101 471.097 471.101 471.097 144.748"/>
  <polygon style="fill: rgb(81, 179, 218);" points="388.035 65.117 258.777 65.117 258.777 471.084 471.748 471.084 471.748 144.904"/>
  <g style="" transform="matrix(0.792934, 0, 0, 0.791763, 60.950571, 65.374971)">
    <polygon style="fill:#BEDDF5;" points="424.229,204.8 424.229,12.854 411.374,0 87.771,0 87.771,204.8 &#9;"/>
    <rect x="87.771" y="307.2" style="fill:#BEDDF5;" width="336.457" height="204.8"/>
  </g>
  <g style="" transform="matrix(0.822682, 0, 0, 0.793313, 48.20981, 64.697611)">
    <polygon style="fill:#93C7EF;" points="411.374,0 256,0 256,204.8 424.229,204.8 424.229,12.854 &#9;"/>
    <rect x="256" y="307.2" style="fill:#93C7EF;" width="168.229" height="204.8"/>
  </g>
  <g style="" transform="matrix(0.613217, 0, 0, 0.818618, 101.288142, 62.282377)">
    <rect x="182.857" y="402.286" style="fill:#FFFFFF;" width="146.286" height="43.886"/>
    <rect x="160.914" y="51.2" style="fill:#FFFFFF;" width="43.886" height="73.143"/>
  </g>
</svg>