<?xml version="1.0" encoding="iso-8859-1"?>
<svg height="800px" width="800px" version="1.1" id="Layer_1" xmlns="http://www.w3.org/2000/svg" xmlns:xlink="http://www.w3.org/1999/xlink" 
	 viewBox="0 0 306.257 306.257" xml:space="preserve">
<g>
	<path style="fill:#51B3DA;" d="M274.968,136.765l23.788-21.476c-7.938-19.165-7.959-19.214-15.897-38.379l-32.006,1.635
		c-9.237-9.237-13.904-13.904-23.141-23.141l1.635-32.006c-19.165-7.938-19.214-7.959-38.379-15.897l-21.476,23.788
		c-13.063,0-19.663,0-32.726,0L115.289,7.5c-19.165,7.938-19.214,7.959-38.379,15.897l1.635,32.006
		c-9.237,9.237-13.904,13.904-23.141,23.141L23.398,76.91c-7.938,19.165-7.959,19.214-15.897,38.379l23.788,21.476
		c0,13.063,0,19.663,0,32.726L7.501,190.967c7.938,19.165,7.959,19.214,15.897,38.379l32.007-1.635
		c9.237,9.237,13.903,13.904,23.141,23.141l-1.635,32.006c19.165,7.938,19.214,7.959,38.379,15.897l21.476-23.788
		c13.063,0,19.663,0,32.726,0l21.476,23.788c19.165-7.938,19.214-7.959,38.379-15.897l-1.635-32.006
		c9.237-9.237,13.904-13.904,23.141-23.141l32.006,1.635c7.938-19.165,7.959-19.214,15.897-38.379l-23.788-21.476
		C274.968,156.428,274.968,149.829,274.968,136.765z M153.128,197.573c-24.546,0-44.445-19.898-44.445-44.445
		c0-24.546,19.899-44.444,44.445-44.444s44.445,19.898,44.445,44.444C197.573,177.674,177.674,197.573,153.128,197.573z"/>
	<g>
		<path style="fill:#C7E9F4;" d="M153.128,78.545c-41.191,0-74.583,33.392-74.583,74.583s33.392,74.583,74.583,74.583
			c41.191,0,74.583-33.392,74.583-74.583S194.32,78.545,153.128,78.545z M153.128,197.573c-24.546,0-44.445-19.898-44.445-44.445
			c0-24.546,19.899-44.444,44.445-44.444s44.445,19.898,44.445,44.444C197.573,177.674,177.674,197.573,153.128,197.573z"/>
	</g>
</g>
</svg>